<?xml version="1.0" encoding="UTF-8" standalone="no"?>
<svg width="66px" height="90px" viewBox="0 0 66 90" version="1.1" xmlns="http://www.w3.org/2000/svg" xmlns:xlink="http://www.w3.org/1999/xlink" xmlns:sketch="http://www.bohemiancoding.com/sketch/ns">
    <!-- Generator: Sketch 3.4.4 (17249) - http://www.bohemiancoding.com/sketch -->
    <title>Slice 1</title>
    <desc>Created with Sketch.</desc>
    <defs></defs>
    <g id="Page-1" stroke="none" stroke-width="1" fill="none" fill-rule="evenodd" sketch:type="MSPage">
        <g id="bell" sketch:type="MSLayerGroup" fill="#000000">
            <g id="Group" sketch:type="MSShapeGroup">
                <g id="Shape">
                    <path d="M63.081,0.109 L2.918,0.109 C1.589,0.109 0.51,1.187 0.51,2.517 L0.51,87.483 C0.51,88.813 1.589,89.89 2.918,89.89 L63.081,89.89 C64.411,89.89 65.489,88.813 65.489,87.483 L65.489,2.517 C65.489,1.187 64.411,0.109 63.081,0.109 L63.081,0.109 Z M60.674,85.075 L5.327,85.075 L5.327,4.925 L60.674,4.925 L60.674,85.075 L60.674,85.075 Z"></path>
                    <path d="M12.13,18.326 L53.867,18.326 C54.973,18.326 55.873,17.428 55.873,16.32 C55.873,15.212 54.974,14.313 53.867,14.313 L12.13,14.313 C11.02,14.313 10.124,15.211 10.124,16.32 C10.124,17.429 11.02,18.326 12.13,18.326 L12.13,18.326 Z"></path>
                    <path d="M12.13,29.295 L53.867,29.295 C54.973,29.295 55.873,28.397 55.873,27.289 C55.873,26.181 54.974,25.282 53.867,25.282 L12.13,25.282 C11.02,25.282 10.124,26.18 10.124,27.289 C10.124,28.397 11.02,29.295 12.13,29.295 L12.13,29.295 Z"></path>
                </g>
                <g transform="translate(17.000000, 42.000000)" id="Shape">
                    <path d="M13.011,28.286 C12.973,28.491 12.951,28.704 12.951,28.923 C12.951,30.726 14.308,32.19 15.989,32.19 C17.67,32.19 19.027,30.726 19.027,28.923 C19.027,28.704 19.007,28.491 18.97,28.286 L13.011,28.286 L13.011,28.286 Z"></path>
                    <path d="M13.258,3.43 C10.759,4.101 9.148,5.295 8.082,7.468 C6.357,10.983 7.496,16.942 5.909,20.611 C4.849,23.06 3.159,24.285 0.526,25.374 L0.526,27.029 C10.53,27.031 21.128,27.026 31.471,27.029 L31.471,25.166 C30.597,24.804 29.863,24.636 29.195,24.236 C25.042,21.739 25.358,16.219 24.954,10.986 C24.649,7.042 22.16,4.548 19.053,3.43 C19.771,-0.878 12.609,-0.637 13.258,3.43 L13.258,3.43 Z"></path>
                </g>
            </g>
        </g>
    </g>
</svg>