<?xml version="1.0" encoding="UTF-8" standalone="no"?>
<svg width="66px" height="90px" viewBox="0 0 66 90" version="1.1" xmlns="http://www.w3.org/2000/svg" xmlns:xlink="http://www.w3.org/1999/xlink" xmlns:sketch="http://www.bohemiancoding.com/sketch/ns">
    <!-- Generator: Sketch 3.4.4 (17249) - http://www.bohemiancoding.com/sketch -->
    <title>Slice 1</title>
    <desc>Created with Sketch.</desc>
    <defs></defs>
    <g id="Page-1" stroke="none" stroke-width="1" fill="none" fill-rule="evenodd" sketch:type="MSPage">
        <g id="cross" sketch:type="MSLayerGroup" fill="#000000">
            <g id="Group" sketch:type="MSShapeGroup">
                <g id="Shape">
                    <path d="M63.081,0.109 L2.918,0.109 C1.589,0.109 0.51,1.187 0.51,2.517 L0.51,87.483 C0.51,88.813 1.589,89.89 2.918,89.89 L63.081,89.89 C64.411,89.89 65.489,88.813 65.489,87.483 L65.489,2.517 C65.489,1.187 64.411,0.109 63.081,0.109 L63.081,0.109 Z M60.674,85.075 L5.327,85.075 L5.327,4.925 L60.674,4.925 L60.674,85.075 L60.674,85.075 Z"></path>
                    <path d="M12.13,18.326 L53.867,18.326 C54.973,18.326 55.873,17.428 55.873,16.32 C55.873,15.212 54.974,14.313 53.867,14.313 L12.13,14.313 C11.02,14.313 10.124,15.211 10.124,16.32 C10.124,17.429 11.02,18.326 12.13,18.326 L12.13,18.326 Z"></path>
                    <path d="M12.13,29.295 L53.867,29.295 C54.973,29.295 55.873,28.397 55.873,27.289 C55.873,26.181 54.974,25.282 53.867,25.282 L12.13,25.282 C11.02,25.282 10.124,26.18 10.124,27.289 C10.124,28.397 11.02,29.295 12.13,29.295 L12.13,29.295 Z"></path>
                </g>
                <path d="M44.15,53.798 C44.689,54.329 44.683,55.194 44.15,55.731 L39.667,60.212 L44.15,64.694 C44.683,65.231 44.686,66.097 44.15,66.632 L38.698,72.086 C38.162,72.617 37.297,72.618 36.763,72.084 L32.277,67.599 L27.794,72.081 C27.261,72.617 26.402,72.62 25.862,72.086 L20.41,66.629 C19.874,66.098 19.877,65.229 20.41,64.695 L24.893,60.214 L20.41,55.733 C19.877,55.198 19.877,54.33 20.413,53.796 L25.862,48.344 C26.398,47.808 27.264,47.81 27.797,48.346 L32.277,52.825 L36.763,48.341 C37.296,47.808 38.164,47.808 38.698,48.342 L44.15,53.798 L44.15,53.798 Z" id="Shape"></path>
            </g>
        </g>
    </g>
</svg>