<?xml version="1.0" encoding="UTF-8" standalone="no"?>
<svg width="66px" height="90px" viewBox="0 0 66 90" version="1.1" xmlns="http://www.w3.org/2000/svg" xmlns:xlink="http://www.w3.org/1999/xlink" xmlns:sketch="http://www.bohemiancoding.com/sketch/ns">
    <!-- Generator: Sketch 3.4.4 (17249) - http://www.bohemiancoding.com/sketch -->
    <title>Slice 1</title>
    <desc>Created with Sketch.</desc>
    <defs></defs>
    <g id="Page-1" stroke="none" stroke-width="1" fill="none" fill-rule="evenodd" sketch:type="MSPage">
        <g id="doc" sketch:type="MSLayerGroup" fill="#000000">
            <g id="Group" sketch:type="MSShapeGroup">
                <path d="M62.85,0.455 L3.15,0.455 C1.831,0.455 0.761,1.525 0.761,2.844 L0.761,87.156 C0.761,88.476 1.831,89.545 3.15,89.545 L62.85,89.545 C64.169,89.545 65.24,88.477 65.24,87.156 L65.24,2.844 C65.239,1.525 64.169,0.455 62.85,0.455 L62.85,0.455 Z M60.461,84.767 L5.54,84.767 L5.54,5.233 L60.461,5.233 L60.461,84.767 L60.461,84.767 Z" id="Shape"></path>
                <path d="M12.291,23.577 L21.849,23.577 C22.949,23.577 23.84,22.684 23.84,21.586 C23.84,20.485 22.948,19.595 21.849,19.595 L12.291,19.595 C11.191,19.595 10.3,20.485 10.3,21.586 C10.299,22.684 11.191,23.577 12.291,23.577 L12.291,23.577 Z" id="Shape"></path>
                <path d="M12.291,34.459 L53.707,34.459 C54.807,34.459 55.698,33.569 55.698,32.468 C55.698,31.37 54.806,30.477 53.707,30.477 L12.291,30.477 C11.191,30.477 10.3,31.37 10.3,32.468 C10.299,33.57 11.191,34.459 12.291,34.459 L12.291,34.459 Z" id="Shape"></path>
                <path d="M12.291,45.345 L53.707,45.345 C54.807,45.345 55.698,44.454 55.698,43.354 C55.698,42.254 54.806,41.363 53.707,41.363 L12.291,41.363 C11.191,41.363 10.3,42.254 10.3,43.354 C10.299,44.454 11.191,45.345 12.291,45.345 L12.291,45.345 Z" id="Shape"></path>
                <path d="M12.291,56.231 L53.707,56.231 C54.807,56.231 55.698,55.337 55.698,54.24 C55.698,53.138 54.806,52.249 53.707,52.249 L12.291,52.249 C11.191,52.249 10.3,53.139 10.3,54.24 C10.299,55.338 11.191,56.231 12.291,56.231 L12.291,56.231 Z" id="Shape"></path>
                <path d="M12.291,67.114 L21.849,67.114 C22.949,67.114 23.84,66.224 23.84,65.123 C23.84,64.024 22.948,63.132 21.849,63.132 L12.291,63.132 C11.191,63.132 10.3,64.025 10.3,65.123 C10.299,66.225 11.191,67.114 12.291,67.114 L12.291,67.114 Z" id="Shape"></path>
            </g>
        </g>
    </g>
</svg>