<?xml version="1.0" encoding="UTF-8" standalone="no"?>
<svg width="66px" height="90px" viewBox="0 0 66 90" version="1.1" xmlns="http://www.w3.org/2000/svg" xmlns:xlink="http://www.w3.org/1999/xlink" xmlns:sketch="http://www.bohemiancoding.com/sketch/ns">
    <!-- Generator: Sketch 3.4.4 (17249) - http://www.bohemiancoding.com/sketch -->
    <title>Slice 1</title>
    <desc>Created with Sketch.</desc>
    <defs></defs>
    <g id="Page-1" stroke="none" stroke-width="1" fill="none" fill-rule="evenodd" sketch:type="MSPage">
        <g id="down" sketch:type="MSLayerGroup" fill="#000000">
            <g id="Group" sketch:type="MSShapeGroup">
                <g id="Shape">
                    <path d="M63.08,0.109 L2.918,0.109 C1.589,0.109 0.51,1.187 0.51,2.517 L0.51,87.484 C0.51,88.815 1.589,89.892 2.918,89.892 L63.08,89.892 C64.41,89.892 65.488,88.815 65.488,87.484 L65.488,2.517 C65.488,1.187 64.41,0.109 63.08,0.109 L63.08,0.109 Z M60.673,85.075 L5.327,85.075 L5.327,4.925 L60.673,4.925 L60.673,85.075 L60.673,85.075 Z"></path>
                    <path d="M12.13,18.326 L53.865,18.326 C54.975,18.326 55.872,17.428 55.872,16.319 C55.872,15.211 54.976,14.313 53.865,14.313 L12.13,14.313 C11.022,14.313 10.123,15.211 10.123,16.319 C10.124,17.427 11.022,18.326 12.13,18.326 L12.13,18.326 Z"></path>
                    <path d="M12.13,29.295 L53.865,29.295 C54.975,29.295 55.872,28.397 55.872,27.288 C55.872,26.179 54.976,25.282 53.865,25.282 L12.13,25.282 C11.022,25.282 10.123,26.18 10.123,27.288 C10.123,28.396 11.022,29.295 12.13,29.295 L12.13,29.295 Z"></path>
                </g>
                <path d="M51.119,61.26 C50.95,60.854 50.555,60.589 50.116,60.589 L40.236,60.589 L40.236,38.193 C40.236,37.594 39.751,37.108 39.151,37.108 L26.85,37.108 C26.251,37.108 25.765,37.594 25.765,38.193 L25.765,60.589 L15.883,60.589 C15.444,60.589 15.049,60.854 14.88,61.26 C14.714,61.664 14.808,62.131 15.118,62.442 L32.23,79.561 C32.437,79.765 32.709,79.877 32.998,79.877 C33.287,79.877 33.562,79.765 33.766,79.561 L50.881,62.442 C51.191,62.131 51.285,61.664 51.119,61.26 L51.119,61.26 Z" id="Shape"></path>
            </g>
        </g>
    </g>
</svg>