<?xml version="1.0" encoding="UTF-8" standalone="no"?>
<svg width="66px" height="90px" viewBox="0 0 66 90" version="1.1" xmlns="http://www.w3.org/2000/svg" xmlns:xlink="http://www.w3.org/1999/xlink" xmlns:sketch="http://www.bohemiancoding.com/sketch/ns">
    <!-- Generator: Sketch 3.4.4 (17249) - http://www.bohemiancoding.com/sketch -->
    <title>Slice 1</title>
    <desc>Created with Sketch.</desc>
    <defs></defs>
    <g id="Page-1" stroke="none" stroke-width="1" fill="none" fill-rule="evenodd" sketch:type="MSPage">
        <g id="tick" sketch:type="MSLayerGroup" fill="#000000">
            <g id="Group" sketch:type="MSShapeGroup">
                <g id="Shape">
                    <path d="M63.08,0.109 L2.918,0.109 C1.589,0.109 0.51,1.187 0.51,2.517 L0.51,87.484 C0.51,88.815 1.589,89.892 2.918,89.892 L63.08,89.892 C64.41,89.892 65.488,88.815 65.488,87.484 L65.488,2.517 C65.488,1.187 64.41,0.109 63.08,0.109 L63.08,0.109 Z M60.673,85.075 L5.327,85.075 L5.327,4.925 L60.673,4.925 L60.673,85.075 L60.673,85.075 Z"></path>
                    <path d="M12.13,18.326 L53.865,18.326 C54.972,18.326 55.872,17.428 55.872,16.319 C55.872,15.211 54.973,14.313 53.865,14.313 L12.13,14.313 C11.02,14.313 10.123,15.211 10.123,16.319 C10.124,17.427 11.021,18.326 12.13,18.326 L12.13,18.326 Z"></path>
                    <path d="M12.13,29.295 L53.865,29.295 C54.972,29.295 55.872,28.397 55.872,27.288 C55.872,26.179 54.973,25.282 53.865,25.282 L12.13,25.282 C11.02,25.282 10.123,26.18 10.123,27.288 C10.123,28.396 11.021,29.295 12.13,29.295 L12.13,29.295 Z"></path>
                </g>
                <path d="M28.618,71.842 C27.712,71.842 26.834,71.483 26.203,70.845 L16.283,60.94 C14.969,59.624 14.953,57.476 16.283,56.147 C17.618,54.83 19.763,54.83 21.077,56.147 L28.523,63.557 L44.835,46.126 C46.124,44.759 48.29,44.697 49.645,45.974 C50.997,47.25 51.075,49.398 49.798,50.768 L31.054,70.769 C30.433,71.434 29.555,71.817 28.634,71.832 C28.64,71.842 28.627,71.842 28.618,71.842 L28.618,71.842 Z" id="Shape"></path>
            </g>
        </g>
    </g>
</svg>