<?xml version="1.0" encoding="UTF-8" standalone="no"?>
<svg width="66px" height="90px" viewBox="0 0 66 90" version="1.1" xmlns="http://www.w3.org/2000/svg" xmlns:xlink="http://www.w3.org/1999/xlink" xmlns:sketch="http://www.bohemiancoding.com/sketch/ns">
    <!-- Generator: Sketch 3.4.4 (17249) - http://www.bohemiancoding.com/sketch -->
    <title>Slice 1</title>
    <desc>Created with Sketch.</desc>
    <defs></defs>
    <g id="Page-1" stroke="none" stroke-width="1" fill="none" fill-rule="evenodd" sketch:type="MSPage">
        <g id="up" sketch:type="MSLayerGroup" fill="#000000">
            <g id="Group" sketch:type="MSShapeGroup">
                <g id="Shape">
                    <path d="M63.08,0.109 L2.918,0.109 C1.589,0.109 0.51,1.187 0.51,2.517 L0.51,87.484 C0.51,88.815 1.589,89.892 2.918,89.892 L63.08,89.892 C64.41,89.892 65.488,88.815 65.488,87.484 L65.488,2.517 C65.488,1.187 64.41,0.109 63.08,0.109 L63.08,0.109 Z M60.673,85.075 L5.327,85.075 L5.327,4.925 L60.673,4.925 L60.673,85.075 L60.673,85.075 Z"></path>
                    <path d="M12.13,18.326 L53.865,18.326 C54.975,18.326 55.872,17.428 55.872,16.319 C55.872,15.211 54.976,14.313 53.865,14.313 L12.13,14.313 C11.022,14.313 10.123,15.211 10.123,16.319 C10.124,17.427 11.022,18.326 12.13,18.326 L12.13,18.326 Z"></path>
                    <path d="M12.13,29.295 L53.865,29.295 C54.975,29.295 55.872,28.397 55.872,27.288 C55.872,26.179 54.976,25.282 53.865,25.282 L12.13,25.282 C11.022,25.282 10.123,26.18 10.123,27.288 C10.123,28.396 11.022,29.295 12.13,29.295 L12.13,29.295 Z"></path>
                </g>
                <path d="M14.882,55.726 C15.048,56.132 15.446,56.397 15.885,56.397 L25.764,56.397 L25.764,78.793 C25.764,79.392 26.247,79.878 26.849,79.878 L39.148,79.878 C39.747,79.878 40.233,79.392 40.233,78.793 L40.233,56.396 L50.116,56.396 C50.554,56.396 50.95,56.131 51.119,55.725 C51.285,55.321 51.194,54.854 50.884,54.543 L33.769,37.425 C33.565,37.221 33.29,37.108 33.001,37.108 C32.716,37.108 32.44,37.221 32.236,37.425 L15.117,54.544 C14.807,54.854 14.713,55.321 14.882,55.726 L14.882,55.726 Z" id="Shape"></path>
            </g>
        </g>
    </g>
</svg>